<svg width="24" height="24" viewBox="0 0 24 24" fill="none" xmlns="http://www.w3.org/2000/svg">
<path d="M19.5 24H4.5C3.673 24 3 23.327 3 22.5V1.5C3 0.673 3.673 0 4.5 0H14.5C14.776 0 15 0.224 15 0.5V5.5C15 5.775 15.224 6 15.5 6H20.5C20.776 6 21 6.224 21 6.5V22.5C21 23.327 20.327 24 19.5 24ZM4.5 1C4.224 1 4 1.225 4 1.5V22.5C4 22.775 4.224 23 4.5 23H19.5C19.776 23 20 22.775 20 22.5V7H15.5C14.673 7 14 6.327 14 5.5V1H4.5Z" fill="#505160"/>
<path d="M20.5002 7.00023C20.3723 7.00023 20.2442 6.95123 20.1462 6.85423L14.1462 0.854227C13.9513 0.659227 13.9513 0.342227 14.1462 0.147227C14.3413 -0.0477734 14.6582 -0.0477734 14.8532 0.147227L20.8533 6.14723C21.0483 6.34223 21.0483 6.65923 20.8533 6.85423C20.7563 6.95123 20.6282 7.00023 20.5002 7.00023Z" fill="#505160"/>
<path d="M16.5 10H7.5C7.224 10 7 9.776 7 9.5C7 9.224 7.224 9 7.5 9H16.5C16.776 9 17 9.224 17 9.5C17 9.776 16.776 10 16.5 10Z" fill="#505160"/>
<path d="M16.5 14H7.5C7.224 14 7 13.776 7 13.5C7 13.224 7.224 13 7.5 13H16.5C16.776 13 17 13.224 17 13.5C17 13.776 16.776 14 16.5 14Z" fill="#505160"/>
<path d="M16.5 18H7.5C7.224 18 7 17.776 7 17.5C7 17.224 7.224 17 7.5 17H16.5C16.776 17 17 17.224 17 17.5C17 17.776 16.776 18 16.5 18Z" fill="#505160"/>
</svg>
